<svg xmlns="http://www.w3.org/2000/svg" width="84.949" height="84.949" viewBox="0 0 84.949 84.949"><g transform="translate(0 0)"><path d="M49.546,23A26.546,26.546,0,1,1,23,49.546,26.546,26.546,0,0,1,49.546,23Zm5.309,26.546a5.309,5.309,0,1,0-5.309,5.309,5.309,5.309,0,0,0,5.309-5.309Z" transform="translate(7.529 7.529)" fill="#d8e0eb"/><path d="M22.964,1V16.264a8.639,8.639,0,0,0-7.964.69V15.309a14.451,14.451,0,0,1,3.809-9.862Z" transform="translate(4.91 0.327)" fill="#cad1e1"/><path d="M39.934,22.964H24.67A8.639,8.639,0,0,0,23.98,15h1.646a14.451,14.451,0,0,1,9.862,3.809Z" transform="translate(7.849 4.91)" fill="#cad1e1"/><path d="M22.964,24.67v.956a14.451,14.451,0,0,1-3.809,9.862L15,39.934V23.98A8.639,8.639,0,0,0,22.964,24.67Z" transform="translate(4.91 7.849)" fill="#cad1e1"/><path d="M23.946,23.946V17.309H17.309v6.637Zm0-11.282a8.624,8.624,0,1,1-7.964.69A8.628,8.628,0,0,1,23.946,12.664Z" transform="translate(3.928 3.928)" fill="#d8e0eb"/><path d="M16.928,15l.027.013A8.5,8.5,0,0,0,15.6,19.646a8.607,8.607,0,0,0,.664,3.318h-.956a14.451,14.451,0,0,1-9.862-3.809L1,15Z" transform="translate(0.327 4.91)" fill="#cad1e1"/><path d="M15.327,18.61A1.327,1.327,0,0,1,14,17.283V15.636A15.7,15.7,0,0,1,18.166,4.867L22.322.421a1.327,1.327,0,0,1,2.3.906V16.592a1.327,1.327,0,1,1-2.655,0V4.692L20.107,6.68a13.051,13.051,0,0,0-3.452,8.957v1.646a1.327,1.327,0,0,1-1.327,1.327Z" transform="translate(4.583 0)"/><path d="M40.262,24.619H25a1.327,1.327,0,0,1,0-2.655H36.9L34.91,20.107a13.051,13.051,0,0,0-8.957-3.452H24.306a1.327,1.327,0,0,1,0-2.655h1.647a15.7,15.7,0,0,1,10.769,4.166l4.446,4.156a1.327,1.327,0,0,1-.906,2.3Z" transform="translate(7.522 4.583)"/><path d="M15.327,41.59A1.325,1.325,0,0,1,14,40.263V24.3a1.327,1.327,0,1,1,2.655,0V36.9l1.857-1.987a13.051,13.051,0,0,0,3.452-8.957V25a1.327,1.327,0,0,1,2.655,0v.955a15.7,15.7,0,0,1-4.166,10.769L16.3,41.169A1.328,1.328,0,0,1,15.327,41.59Z" transform="translate(4.583 7.521)"/><path d="M16.592,24.619h-.955A15.7,15.7,0,0,1,4.867,20.453L.421,16.3A1.327,1.327,0,0,1,1.327,14H17.255a1.327,1.327,0,1,1,0,2.655H4.692L6.68,18.512a13.051,13.051,0,0,0,8.957,3.452h.955a1.327,1.327,0,1,1,0,2.655Z" transform="translate(0 4.583)"/><path d="M20.955,30.909a9.955,9.955,0,1,1,9.955-9.955,9.955,9.955,0,0,1-9.955,9.955Zm0-17.255a7.3,7.3,0,1,0,7.3,7.3A7.3,7.3,0,0,0,20.955,13.654Z" transform="translate(3.601 3.6)"/><path d="M22.964,24.291H16.327A1.327,1.327,0,0,1,15,22.964V16.327A1.327,1.327,0,0,1,16.327,15h6.637a1.327,1.327,0,0,1,1.327,1.327v6.637a1.327,1.327,0,0,1-1.327,1.327Zm-5.309-2.655h3.982V17.655H17.655Z" transform="translate(4.91 4.91)"/><path d="M49.874,77.748A27.874,27.874,0,1,1,77.748,49.874,27.874,27.874,0,0,1,49.874,77.748Zm0-53.093A25.219,25.219,0,1,0,75.093,49.874,25.219,25.219,0,0,0,49.874,24.655Z" transform="translate(7.201 7.201)"/><path d="M44.637,51.273a6.637,6.637,0,1,1,6.637-6.637,6.637,6.637,0,0,1-6.637,6.637Zm0-10.619a3.982,3.982,0,1,0,3.982,3.982,3.982,3.982,0,0,0-3.982-3.982Z" transform="translate(12.438 12.438)"/><path d="M43.348,36.655A1.327,1.327,0,0,1,43.335,34h.013a1.327,1.327,0,0,1,0,2.655Z" transform="translate(13.752 11.129)"/><path d="M43.348,32.655A1.327,1.327,0,1,1,43.335,30h.013a1.327,1.327,0,1,1,0,2.655Z" transform="translate(13.752 9.82)"/><path d="M43.348,28.655A1.327,1.327,0,1,1,43.335,26h.013a1.327,1.327,0,1,1,0,2.655Z" transform="translate(13.752 8.511)"/><path d="M39.348,37.655A1.327,1.327,0,1,1,39.335,35h.013a1.327,1.327,0,1,1,0,2.655Z" transform="translate(12.443 11.456)"/><path d="M37.348,33.655A1.327,1.327,0,1,1,37.335,31h.013a1.327,1.327,0,1,1,0,2.655Z" transform="translate(11.789 10.147)"/><path d="M36.348,40.655A1.327,1.327,0,0,1,36.335,38h.013a1.327,1.327,0,0,1,0,2.655Z" transform="translate(11.461 12.438)"/><path d="M32.348,38.655A1.327,1.327,0,1,1,32.335,36h.013a1.327,1.327,0,1,1,0,2.655Z" transform="translate(10.152 11.784)"/><path d="M29.348,36.655A1.327,1.327,0,0,1,29.335,34h.013a1.327,1.327,0,0,1,0,2.655Z" transform="translate(9.17 11.129)"/><path d="M35.348,44.655A1.327,1.327,0,1,1,35.335,42h.013a1.327,1.327,0,0,1,0,2.655Z" transform="translate(11.134 13.748)"/><path d="M31.348,44.655A1.327,1.327,0,0,1,31.335,42h.013a1.327,1.327,0,0,1,0,2.655Z" transform="translate(9.825 13.748)"/><path d="M27.348,44.655A1.327,1.327,0,1,1,27.335,42h.013a1.327,1.327,0,1,1,0,2.655Z" transform="translate(8.515 13.748)"/><path d="M36.348,48.655A1.327,1.327,0,0,1,36.335,46h.013a1.327,1.327,0,0,1,0,2.655Z" transform="translate(11.461 15.057)"/><path d="M32.348,50.655A1.327,1.327,0,1,1,32.335,48h.013a1.327,1.327,0,1,1,0,2.655Z" transform="translate(10.152 15.712)"/><path d="M29.348,52.655A1.327,1.327,0,1,1,29.335,50h.013a1.327,1.327,0,1,1,0,2.655Z" transform="translate(9.17 16.366)"/><path d="M39.348,51.655A1.327,1.327,0,1,1,39.335,49h.013a1.327,1.327,0,0,1,0,2.655Z" transform="translate(12.443 16.039)"/><path d="M37.348,55.655A1.327,1.327,0,1,1,37.335,53h.013a1.327,1.327,0,0,1,0,2.655Z" transform="translate(11.789 17.348)"/><path d="M35.348,58.655A1.327,1.327,0,0,1,35.335,56h.013a1.327,1.327,0,0,1,0,2.655Z" transform="translate(11.134 18.33)"/><path d="M43.348,52.655A1.327,1.327,0,1,1,43.335,50h.013a1.327,1.327,0,1,1,0,2.655Z" transform="translate(13.752 16.366)"/><path d="M43.348,56.655A1.327,1.327,0,1,1,43.335,54h.013a1.327,1.327,0,1,1,0,2.655Z" transform="translate(13.752 17.676)"/><path d="M43.348,60.655A1.327,1.327,0,1,1,43.335,58h.013a1.327,1.327,0,1,1,0,2.655Z" transform="translate(13.752 18.985)"/><path d="M47.348,51.655A1.327,1.327,0,0,1,47.335,49h.013a1.327,1.327,0,0,1,0,2.655Z" transform="translate(15.062 16.039)"/><path d="M49.348,55.655A1.327,1.327,0,0,1,49.335,53h.013a1.327,1.327,0,0,1,0,2.655Z" transform="translate(15.716 17.348)"/><path d="M51.348,58.655A1.327,1.327,0,0,1,51.335,56h.013a1.327,1.327,0,0,1,0,2.655Z" transform="translate(16.371 18.33)"/><path d="M50.348,48.655A1.327,1.327,0,1,1,50.335,46h.013a1.327,1.327,0,0,1,0,2.655Z" transform="translate(16.044 15.057)"/><path d="M54.348,50.655A1.327,1.327,0,0,1,54.335,48h.013a1.327,1.327,0,1,1,0,2.655Z" transform="translate(17.353 15.712)"/><path d="M57.348,52.655A1.327,1.327,0,1,1,57.335,50h.013a1.327,1.327,0,0,1,0,2.655Z" transform="translate(18.335 16.366)"/><path d="M51.348,44.655A1.327,1.327,0,0,1,51.335,42h.013a1.327,1.327,0,1,1,0,2.655Z" transform="translate(16.371 13.748)"/><path d="M55.348,44.655A1.327,1.327,0,1,1,55.335,42h.013a1.327,1.327,0,1,1,0,2.655Z" transform="translate(17.68 13.748)"/><path d="M59.348,44.655A1.327,1.327,0,1,1,59.335,42h.013a1.327,1.327,0,1,1,0,2.655Z" transform="translate(18.99 13.748)"/><path d="M50.348,40.655A1.327,1.327,0,1,1,50.335,38h.013a1.327,1.327,0,0,1,0,2.655Z" transform="translate(16.044 12.438)"/><path d="M54.348,38.655A1.327,1.327,0,0,1,54.335,36h.013a1.327,1.327,0,1,1,0,2.655Z" transform="translate(17.353 11.784)"/><path d="M57.348,36.655A1.327,1.327,0,1,1,57.335,34h.013a1.327,1.327,0,0,1,0,2.655Z" transform="translate(18.335 11.129)"/><path d="M47.348,37.655A1.327,1.327,0,0,1,47.335,35h.013a1.327,1.327,0,0,1,0,2.655Z" transform="translate(15.062 11.456)"/><path d="M49.348,33.655A1.327,1.327,0,1,1,49.335,31h.013a1.327,1.327,0,1,1,0,2.655Z" transform="translate(15.716 10.147)"/><path d="M51.348,30.655A1.327,1.327,0,0,1,51.335,28h.013a1.327,1.327,0,1,1,0,2.655Z" transform="translate(16.371 9.165)"/><path d="M35.348,30.655A1.327,1.327,0,0,1,35.335,28h.013a1.327,1.327,0,0,1,0,2.655Z" transform="translate(11.134 9.165)"/></g></svg>