<svg xmlns="http://www.w3.org/2000/svg" width="83.051" height="92.231" viewBox="0 0 83.051 92.231"><g transform="translate(-43.491 -20)"><g transform="translate(44.663 21.172)"><path d="M49.49,280.8v7.842H87.93V280.8Z" transform="translate(-49.49 -231.011)" fill="#505a5d"/><path d="M94.588,320.93a17.016,17.016,0,0,1-3.928,10.9h0a17.1,17.1,0,0,1-4.682,3.937,16.9,16.9,0,0,1-6.05,2.075A17.08,17.08,0,0,1,60.42,320.93Z" transform="translate(-58.284 -263.299)" fill="#bbb"/><path d="M140.3,407.48v7.287H135.45V407.48a17.159,17.159,0,0,0,4.846,0Z" transform="translate(-118.653 -332.937)" fill="#505a5d"/><path d="M217.955,352.57a17.11,17.11,0,0,1-2.775,4.717H231.7V352.57Z" transform="translate(-182.803 -288.757)" fill="#505a5d"/><path d="M328.661,337.24H302.589a2.875,2.875,0,0,0-2.868,2.869v4.973a2.877,2.877,0,0,0,2.868,2.869h26.073a2.878,2.878,0,0,0,2.869-2.869v-4.973A2.877,2.877,0,0,0,328.661,337.24Z" transform="translate(-250.824 -276.422)" fill="#5b6a70"/><path d="M85.479,221.2a1.167,1.167,0,0,1-.938.471H81.805a1.172,1.172,0,1,1,0-2.345h1.174L77.5,215.22l-5.475,4.107h1.178a1.172,1.172,0,1,1,0,2.345H70.472a1.167,1.167,0,0,1-.94-.473l-9.112,6.835H94.588Zm-12.271,4.467H70.472a1.172,1.172,0,0,1,0-2.345h2.736a1.172,1.172,0,0,1,0,2.345Zm11.333,0H81.805a1.172,1.172,0,0,1,0-2.345h2.736a1.172,1.172,0,0,1,0,2.345Z" transform="translate(-58.284 -178.246)" fill="#b56c47"/><path d="M71.02,157.48v7.842h30.026V157.48Z" transform="translate(-66.813 -131.788)" fill="#cccccd"/><path d="M118.714,139.548a2.917,2.917,0,0,0-1.923-.668H103.437c-1.368,0-2.487.819-2.487,1.817v1.817h18.329V140.7A1.542,1.542,0,0,0,118.714,139.548Z" transform="translate(-90.894 -116.823)" fill="#bbb"/><path d="M127.588,29.631A5.171,5.171,0,0,0,122.564,26h-2.319A5.185,5.185,0,0,0,115,31.718l1.419,16.34h9.966l1.419-16.34A5.42,5.42,0,0,0,127.588,29.631Z" transform="translate(-102.184 -26)" fill="#5b6a70"/></g><path d="M122.5,80.817H96.427a4.044,4.044,0,0,0-3.9,3H81.441a18.152,18.152,0,0,0,.661-3.839h1A1.173,1.173,0,0,0,84.276,78.8V70.96A1.173,1.173,0,0,0,83.1,69.788H81.359L64.587,57.209a1.172,1.172,0,0,0-1.407,0L46.408,69.788H44.663a1.173,1.173,0,0,0-1.172,1.172V78.8a1.173,1.173,0,0,0,1.172,1.172h1A18.293,18.293,0,0,0,60.289,96.7V103H56.425a4.046,4.046,0,0,0-4.041,4.041v4.016a1.172,1.172,0,1,0,2.345,0v-4.016a1.7,1.7,0,0,1,1.7-1.7H71.343a1.7,1.7,0,0,1,1.7,1.7v4.016a1.172,1.172,0,1,0,2.345,0v-4.016A4.046,4.046,0,0,0,71.343,103H67.479V96.7a18.261,18.261,0,0,0,10.088-5.828H92.528a4.045,4.045,0,0,0,3.9,3H122.5a4.046,4.046,0,0,0,4.041-4.041V84.857A4.046,4.046,0,0,0,122.5,80.817ZM57.236,64.6h2.35a1.172,1.172,0,0,0,.575-2.194l3.722-2.792,3.724,2.793a1.172,1.172,0,0,0,.577,2.192H70.53l6.92,5.19H50.316Zm-11.4,7.535h36.1v5.5h-36.1ZM65.133,103h-2.5V97.015c.413.028.83.044,1.25.044s.837-.016,1.25-.044Zm-1.25-8.287a15.93,15.93,0,0,1-15.864-14.74H79.748A15.93,15.93,0,0,1,63.883,94.714Zm16.708-8.556H92.386V88.53H79.326A18.234,18.234,0,0,0,80.591,86.158ZM124.2,89.83a1.7,1.7,0,0,1-1.7,1.7H96.427a1.7,1.7,0,0,1-1.7-1.7V84.858a1.7,1.7,0,0,1,1.7-1.7H122.5a1.7,1.7,0,0,1,1.7,1.7ZM60.759,67.422a1.173,1.173,0,0,1-1.172,1.172H56.851a1.172,1.172,0,0,1,0-2.345h2.735A1.172,1.172,0,0,1,60.759,67.422Zm11.333,0a1.173,1.173,0,0,1-1.172,1.172H68.185a1.172,1.172,0,1,1,0-2.345H70.92A1.173,1.173,0,0,1,72.092,67.422Zm1.92,15.969a1.173,1.173,0,0,1-1.172,1.172H54.927a1.172,1.172,0,1,1,0-2.345H72.84A1.173,1.173,0,0,1,74.013,83.391ZM48.87,55.877H78.9A1.173,1.173,0,0,0,80.069,54.7V46.863A1.173,1.173,0,0,0,78.9,45.691H74.219v-.644c0-1.676-1.607-2.989-3.659-2.989h-.416L71.452,26.99A6.354,6.354,0,0,0,65.043,20H62.724a6.354,6.354,0,0,0-6.409,6.99l1.307,15.067h-.416c-2.052,0-3.659,1.313-3.659,2.989v.644H48.87A1.173,1.173,0,0,0,47.7,46.863V54.7A1.172,1.172,0,0,0,48.87,55.877Zm9.78-29.09a4.01,4.01,0,0,1,4.073-4.442h2.319a4.01,4.01,0,0,1,4.073,4.442l-1.325,15.27H59.976ZM55.892,45.046c0-.221.512-.644,1.314-.644H70.561c.8,0,1.314.423,1.314.644v.644H55.892Zm-5.849,2.989H77.724v5.5H50.043Z" transform="translate(0)"/></g></svg>