<svg xmlns="http://www.w3.org/2000/svg" width="86.182" height="117.5" viewBox="0 0 86.182 117.5"><g transform="translate(0.005)"><g transform="translate(-0.005 0)"><path d="M24.069,30,9.695,83.893a3.917,3.917,0,0,1-3.78,2.9A3.743,3.743,0,0,1,4.9,86.654a3.9,3.9,0,0,1-2.761-4.778L15.961,30Z" transform="translate(-0.031 28.75)" fill="#545c60"/><path d="M63.454,34.792H9.13l1.841-6.874A3.881,3.881,0,0,1,14.731,25H57.853a3.881,3.881,0,0,1,3.76,2.918Z" transform="translate(6.801 23.958)" fill="#9e9e9e"/><path d="M40.645,27.918A3.881,3.881,0,0,0,36.885,25H31.01a3.881,3.881,0,0,1,3.76,2.918l1.841,6.874h5.875Z" transform="translate(27.769 23.958)" fill="#707070"/><path d="M51.9,86.654a3.743,3.743,0,0,1-1.018.137,3.917,3.917,0,0,1-3.78-2.9L32.73,30h8.107L54.663,81.876A3.9,3.9,0,0,1,51.9,86.654Z" transform="translate(29.417 28.75)" fill="#545c60"/><path d="M44.9,30,39.793,42.455a1.87,1.87,0,0,1-.862.96l-12.69,7.05a1.958,1.958,0,0,1-2.761-.96L15.49,30Z" transform="translate(12.896 28.75)" fill="#f5f5f5"/><path d="M35.245,30,30.133,42.455a1.87,1.87,0,0,1-.862.96l-9.833,5.464.257.627a1.958,1.958,0,0,0,2.761.96l12.69-7.05a1.87,1.87,0,0,0,.862-.96L41.12,30Z" transform="translate(16.68 28.75)" fill="#cfd8dc"/><path d="M76.826,5.661,59.455,48H22.012L4.642,5.661a1.958,1.958,0,0,1,1.8-2.7H21.19A1.958,1.958,0,0,1,23.148,1H58.32a1.958,1.958,0,0,1,1.958,1.958H75.024a1.958,1.958,0,0,1,1.8,2.7Z" transform="translate(2.359 0.958)" fill="#f5f5f5"/><path d="M51,2H45.129a1.958,1.958,0,0,1,1.8,2.7L29.56,47.041h5.875L52.805,4.7A1.958,1.958,0,0,0,51,2Z" transform="translate(26.379 1.917)" fill="#cfd8dc"/><path d="M48.821,46.213l-.744,5.62H14.9l-.744-5.62A1.958,1.958,0,0,1,16.1,44H46.882a1.958,1.958,0,0,1,1.939,2.213Z" transform="translate(11.603 42.166)" fill="#02a9f4"/><path d="M33.735,44H27.86A1.958,1.958,0,0,1,29.8,46.213l-.744,5.62H34.93l.744-5.62A1.958,1.958,0,0,0,33.735,44Z" transform="translate(24.75 42.166)" fill="#0377bc"/><path d="M47.7,48,45.961,61.042a9.792,9.792,0,0,1-9.713,8.5H25.986a9.792,9.792,0,0,1-9.713-8.5L14.53,48Z" transform="translate(11.976 46)" fill="sienna"/><path d="M34.076,48,32.333,61.042a9.792,9.792,0,0,1-9.713,8.5h5.875a9.792,9.792,0,0,0,9.713-8.5L39.951,48Z" transform="translate(19.728 46)" fill="#783e22"/><path d="M23.355,1.592c-.084.116-.137.245-.21.366H9.8a3.917,3.917,0,0,0-3.611,5.4L22.45,47a5.826,5.826,0,0,0-5.583,4.369L1.2,110.119A5.851,5.851,0,0,0,5.313,117.3a5.591,5.591,0,0,0,1.567.2,5.875,5.875,0,0,0,5.679-4.353L26.535,60.708h1.531l7.5,18.3a3.927,3.927,0,0,0,5.528,1.917l12.676-7.05A3.8,3.8,0,0,0,55.5,71.941l4.6-11.233H61.64L75.617,113.15A5.875,5.875,0,0,0,81.3,117.5a5.483,5.483,0,0,0,1.516-.2,5.85,5.85,0,0,0,4.163-7.183L71.309,51.392A5.826,5.826,0,0,0,65.725,47L81.991,7.361a3.917,3.917,0,0,0-3.613-5.4H65.03c-.072-.121-.125-.251-.21-.366A3.885,3.885,0,0,0,61.668,0H26.508a3.885,3.885,0,0,0-3.153,1.592ZM65.649,50.916a1.927,1.927,0,0,1,1.868,1.467l1.175,4.408H19.483l1.175-4.432a1.919,1.919,0,0,1,1.868-1.443ZM8.767,112.134a1.958,1.958,0,1,1-3.776-1L18.434,60.708H22.48Zm43.1-41.681-12.68,7.06L32.3,60.708H55.873ZM82.992,112.6a1.939,1.939,0,0,1-1.21.916,2.025,2.025,0,0,1-2.373-1.383L65.692,60.708h4.05l13.45,50.435a1.894,1.894,0,0,1-.2,1.461ZM61.67,3.917l-7.7,24.871a1.958,1.958,0,0,0,1.291,2.45,1.994,1.994,0,0,0,.58.1,1.958,1.958,0,0,0,1.87-1.371L65.161,5.875H78.368L61.5,47H26.68L9.8,5.875H23.014l7.453,24.087a1.958,1.958,0,0,0,3.74-1.159l-7.7-24.886Z" transform="translate(-0.995 0)"/><path d="M17.06,43a3.917,3.917,0,0,0-3.883,4.434l2.489,18.661a11.783,11.783,0,0,0,11.646,10.2H37.581a11.783,11.783,0,0,0,11.646-10.2l2.489-18.659A3.917,3.917,0,0,0,47.833,43ZM37.581,72.375H27.312a7.859,7.859,0,0,1-7.765-6.8L18.1,54.75h4.551a1.958,1.958,0,0,0,0-3.917H17.581l-.521-3.917H47.833l-.521,3.917H30.488a1.958,1.958,0,0,0,0,3.917h16.3L45.346,65.578a7.859,7.859,0,0,1-7.765,6.8Z" transform="translate(10.646 41.208)"/></g></g></svg>