<svg xmlns="http://www.w3.org/2000/svg" xmlns:xlink="http://www.w3.org/1999/xlink" width="102" height="102" viewBox="0 0 102 102"><defs><filter id="a" x="0" y="0" width="102" height="102" filterUnits="userSpaceOnUse"><feOffset dy="3" input="SourceAlpha"/><feGaussianBlur stdDeviation="3" result="b"/><feFlood flood-opacity="0.161"/><feComposite operator="in" in2="b"/><feComposite in="SourceGraphic"/></filter></defs><g transform="translate(-178.051 -2275.887)"><g transform="translate(187.051 2281.887)"><g transform="matrix(1, 0, 0, 1, -9, -6)" filter="url(#a)"><circle cx="42" cy="42" r="42" transform="translate(9 6)" fill="#fdf7e4"/></g></g><g transform="translate(205.051 2299)"><g transform="translate(1.742 1.742)"><g transform="translate(0 37.097)"><path d="M22.774,56.452v1.484a1.488,1.488,0,0,1-1.484,1.484H3.484A1.488,1.488,0,0,1,2,57.935V53.484A1.488,1.488,0,0,1,3.484,52H21.29a1.488,1.488,0,0,1,1.484,1.484Z" transform="translate(-2 -52)" fill="#fcd770"/></g><g transform="translate(1.484 28.194)"><path d="M21.806,45.935H4L9.935,40h5.935Z" transform="translate(-4 -40)" fill="#fcd770"/></g><g transform="translate(1.484 34.129)"><path d="M4,48H21.806v2.968H4Z" transform="translate(-4 -48)" fill="#ffeaa7"/></g><g transform="translate(8.903 23.742)"><path d="M14,34h2.968v4.452H14Z" transform="translate(-14 -34)" fill="#ccd1d9"/></g><g transform="translate(7.419)"><path d="M17.935,4.968v19.29a1.488,1.488,0,0,1-1.484,1.484H13.484A1.488,1.488,0,0,1,12,24.258V4.968a2.968,2.968,0,1,1,5.935,0Z" transform="translate(-12 -2)" fill="#969faa"/></g><g transform="translate(25.226 37.097)"><path d="M54.422,52.868a2.969,2.969,0,0,1-2.1,5.067H37.484A1.488,1.488,0,0,1,36,56.452V53.484A1.488,1.488,0,0,1,37.484,52H52.323A2.986,2.986,0,0,1,54.422,52.868Z" transform="translate(-36 -52)" fill="#969faa"/></g><g transform="translate(20.774 38.581)"><path d="M30,54h4.452v2.968H30Z" transform="translate(-30 -54)" fill="#ccd1d9"/></g><g transform="translate(37.839 25.226)"><circle cx="1.5" cy="1.5" r="1.5" transform="translate(0.419 0.032)" fill="#ff826e"/></g><g transform="translate(25.968 25.226)"><circle cx="1.5" cy="1.5" r="1.5" transform="translate(0.29 0.032)" fill="#ff826e"/></g><g transform="translate(31.903 25.226)"><circle cx="1.5" cy="1.5" r="1.5" transform="translate(0.355 0.032)" fill="#ff826e"/></g><g transform="translate(25.226 4.452)"><path d="M53.806,9.484V21.355a1.488,1.488,0,0,1-1.484,1.484H47.129L44.465,25.5a1.049,1.049,0,0,1-1.788-.742V22.839H37.484A1.488,1.488,0,0,1,36,21.355V9.484A1.488,1.488,0,0,1,37.484,8H52.323A1.488,1.488,0,0,1,53.806,9.484Z" transform="translate(-36 -8)" fill="#e6e9ed"/></g><g transform="translate(27.915 5.664)"><ellipse cx="3.662" cy="5.12" rx="3.662" ry="5.12" transform="translate(0 5.178) rotate(-45)" fill="#cf9e76"/></g></g><g transform="translate(1 1)"><path d="M43.29,38.1H28.452a2.223,2.223,0,0,0-2.089,1.484H23.121a2.224,2.224,0,0,0-1.347-1.347V35.564l-6.37-6.37H14.355v-3.1A2.223,2.223,0,0,0,15.839,24V4.71a3.71,3.71,0,0,0-7.419,0V24A2.223,2.223,0,0,0,9.9,26.089v3.1H8.854l-6.37,6.37v2.669A2.223,2.223,0,0,0,1,40.323v4.452A2.229,2.229,0,0,0,3.226,47H21.032a2.229,2.229,0,0,0,2.226-2.226v-.742h3.1a2.223,2.223,0,0,0,2.089,1.484H43.29a3.71,3.71,0,1,0,0-7.419Zm-23-1.484V38.1H3.968V36.613ZM9.9,4.71a2.226,2.226,0,1,1,4.452,0V24a.743.743,0,0,1-.742.742H10.645A.743.743,0,0,1,9.9,24Zm1.484,21.516h1.484v2.968H11.387ZM9.468,30.677H14.79l4.452,4.452H5.017Zm12.306,14.1a.742.742,0,0,1-.742.742H3.226a.742.742,0,0,1-.742-.742V40.323a.742.742,0,0,1,.742-.742H21.032a.742.742,0,0,1,.742.742Zm1.484-3.71h2.968v1.484H23.258ZM43.29,44.032H28.452a.742.742,0,0,1-.742-.742V40.323a.742.742,0,0,1,.742-.742H43.29a2.226,2.226,0,1,1,0,4.452Z" transform="translate(-1 -1)"/><path d="M43.082,19.3A7,7,0,0,0,46.8,21.315a5.16,5.16,0,0,0,.847.073,3.711,3.711,0,0,0,2.69-1.048,3.934,3.934,0,0,0,.976-3.537,7.394,7.394,0,0,0-5.733-5.732,3.931,3.931,0,0,0-3.537.976,3.934,3.934,0,0,0-.976,3.537A7.005,7.005,0,0,0,43.082,19.3Zm3.965.548a5.524,5.524,0,0,1-2.917-1.6,4.6,4.6,0,0,1-1.485-4.389c.157.034.311.064.453.088a2.6,2.6,0,0,1,2.362,2.361,3.935,3.935,0,0,0,1.166,2.408,3.716,3.716,0,0,0,1.824,1.049,3.026,3.026,0,0,1-1.4.078Zm-2.3-7.369a3.574,3.574,0,0,1,.6.051,5.524,5.524,0,0,1,2.917,1.6,4.6,4.6,0,0,1,1.485,4.387c-.158-.035-.313-.065-.456-.089a2.608,2.608,0,0,1-2.364-2.363,3.935,3.935,0,0,0-1.166-2.408,3.718,3.718,0,0,0-1.825-1.048,2.691,2.691,0,0,1,.813-.125Z" transform="translate(-11.322 -3.58)"/><path d="M37.226,23.323h4.452V24.5a1.791,1.791,0,0,0,3.058,1.266l2.443-2.443h4.886A2.229,2.229,0,0,0,54.29,21.1V9.226A2.229,2.229,0,0,0,52.065,7H37.226A2.229,2.229,0,0,0,35,9.226V21.1A2.229,2.229,0,0,0,37.226,23.323Zm-.742-14.1a.743.743,0,0,1,.742-.742H52.065a.743.743,0,0,1,.742.742V21.1a.743.743,0,0,1-.742.742h-5.5l-2.879,2.878a.319.319,0,0,1-.524-.217V21.839H37.226a.743.743,0,0,1-.742-.742Z" transform="translate(-9.774 -2.548)"/><path d="M36,37.226A2.226,2.226,0,1,0,38.226,35,2.229,2.229,0,0,0,36,37.226Zm2.968,0a.742.742,0,1,1-.742-.742A.742.742,0,0,1,38.968,37.226Z" transform="translate(-10.032 -9.774)"/><path d="M44,37.226A2.226,2.226,0,1,0,46.226,35,2.229,2.229,0,0,0,44,37.226Zm2.968,0a.742.742,0,1,1-.742-.742A.742.742,0,0,1,46.968,37.226Z" transform="translate(-12.097 -9.774)"/><path d="M52,37.226A2.226,2.226,0,1,0,54.226,35,2.229,2.229,0,0,0,52,37.226Zm2.968,0a.742.742,0,1,1-.742-.742A.742.742,0,0,1,54.968,37.226Z" transform="translate(-14.161 -9.774)"/></g></g></g></svg>