<svg xmlns="http://www.w3.org/2000/svg" xmlns:xlink="http://www.w3.org/1999/xlink" width="102" height="102" viewBox="0 0 102 102"><defs><filter id="a" x="0" y="0" width="102" height="102" filterUnits="userSpaceOnUse"><feOffset dy="3" input="SourceAlpha"/><feGaussianBlur stdDeviation="3" result="b"/><feFlood flood-opacity="0.161"/><feComposite operator="in" in2="b"/><feComposite in="SourceGraphic"/></filter></defs><g transform="translate(-488.703 -2275.398)"><g transform="translate(497.703 2281.398)"><g transform="matrix(1, 0, 0, 1, -9, -6)" filter="url(#a)"><circle cx="42" cy="42" r="42" transform="translate(9 6)" fill="#fdf7e4"/></g></g><g transform="translate(494.738 2249)"><g transform="translate(16 51)"><path d="M417.683,321A1.683,1.683,0,1,1,416,322.683,1.683,1.683,0,0,1,417.683,321Z" transform="translate(-371.121 -290.706)" fill="#ef3734"/><ellipse cx="3.461" cy="3.231" rx="3.461" ry="3.231" transform="translate(6.621 1.31)" fill="#ef3734"/><path d="M286,176.15v-3.14h10.323v5.162a5.162,5.162,0,0,1-10.323,0Z" transform="translate(-255.706 -159.321)" fill="#ff8a26"/><path d="M61.708,228.854a7.881,7.881,0,0,1-.326,2.244H46.328a7.854,7.854,0,1,1,15.38-2.244Z" transform="translate(-42.634 -201.926)" fill="#774119"/><path d="M69.464,384.366v3.366H56V381H69.464Z" transform="translate(-51.512 -343.974)" fill="#abbfcf"/><path d="M46.2,311v5.759a2.1,2.1,0,0,1-2.095,2.095H28.095A2.1,2.1,0,0,1,26,316.759V311H46.2Z" transform="translate(-24.878 -281.828)" fill="#cfe0e9"/><path d="M176,411h8.976v3.366H176Z" transform="translate(-158.048 -370.608)" fill="#bcb7c6"/><path d="M438.244,391a3.366,3.366,0,0,1,0,6.732H436V391Z" transform="translate(-388.877 -352.852)" fill="#bcb7c6"/><path d="M276.2,391v6.732H256V391Z" transform="translate(-229.072 -352.852)" fill="#ecebed"/><path d="M457.915,111.329a1.121,1.121,0,1,1-.793-.329A1.119,1.119,0,0,1,457.915,111.329Z" transform="translate(-406.633 -104.268)"/><path d="M407.915,61.329a1.121,1.121,0,1,1-.793-.329A1.119,1.119,0,0,1,407.915,61.329Z" transform="translate(-362.243 -59.878)"/><path d="M247.915,331.329a1.121,1.121,0,1,1-.793-.329A1.119,1.119,0,0,1,247.915,331.329Z" transform="translate(-220.194 -299.584)"/><path d="M227.915,61.329a1.121,1.121,0,1,1-.793-.329A1.118,1.118,0,0,1,227.915,61.329Z" transform="translate(-202.438 -59.878)"/><path d="M177.915,141.329a1.121,1.121,0,1,1-.793-.329A1.118,1.118,0,0,1,177.915,141.329Z" transform="translate(-158.048 -130.902)"/><path d="M37.915,161.329a1.121,1.121,0,1,1-.793-.329A1.119,1.119,0,0,1,37.915,161.329Z" transform="translate(-33.756 -148.658)"/><path d="M167.122,376.61A1.122,1.122,0,0,1,166,375.488v-3.366a1.122,1.122,0,0,1,2.244,0v3.366A1.122,1.122,0,0,1,167.122,376.61Z" transform="translate(-149.17 -335.096)"/><path d="M60.586,379.976H47.122A1.122,1.122,0,0,1,46,378.854v-6.732a1.122,1.122,0,0,1,2.244,0v5.61H60.586a1.122,1.122,0,1,1,0,2.244Z" transform="translate(-42.634 -335.096)"/><path d="M176.1,406.61h-8.976A1.122,1.122,0,0,1,166,405.488v-3.366A1.122,1.122,0,0,1,167.122,401H176.1a1.122,1.122,0,1,1,0,2.244h-7.854v1.122H176.1a1.122,1.122,0,1,1,0,2.244Z" transform="translate(-149.17 -361.73)"/><path d="M269.562,389.976h-22.44A1.122,1.122,0,0,1,246,388.854v-6.732A1.122,1.122,0,0,1,247.122,381h22.44a4.488,4.488,0,0,1,0,8.976Zm-21.318-2.244h21.318a2.244,2.244,0,0,0,0-4.488H248.244Z" transform="translate(-220.194 -343.974)"/><path d="M52.5,223.342a1.123,1.123,0,0,1-1.076-1.441,6.732,6.732,0,1,0-12.9,0,1.122,1.122,0,1,1-2.15.641,8.975,8.975,0,1,1,17.2,0A1.122,1.122,0,0,1,52.5,223.342Z" transform="translate(-33.756 -193.048)"/><path d="M35.223,311.1H19.217A3.22,3.22,0,0,1,16,307.881v-5.759A1.122,1.122,0,0,1,17.122,301h20.2a1.122,1.122,0,0,1,1.122,1.122v5.759A3.22,3.22,0,0,1,35.223,311.1Zm-16.979-7.854v4.637a.974.974,0,0,0,.973.973H35.223a.974.974,0,0,0,.973-.973v-4.637Z" transform="translate(-16 -272.95)"/><path d="M427.122,389.976A1.122,1.122,0,0,1,426,388.854v-6.732a1.122,1.122,0,1,1,2.244,0v6.732A1.122,1.122,0,0,1,427.122,389.976Z" transform="translate(-379.999 -343.974)"/><path d="M239.467,205.358A13.482,13.482,0,0,1,226,191.892a1.122,1.122,0,0,1,2.244,0,11.223,11.223,0,0,0,22.445,0,1.122,1.122,0,0,1,1.122-1.122h3.142a1.122,1.122,0,0,1,0,2.244h-2.066A13.485,13.485,0,0,1,239.467,205.358Z" transform="translate(-202.438 -175.088)"/><path d="M282.284,175.577A6.291,6.291,0,0,1,276,169.294v-5.162a1.122,1.122,0,0,1,1.122-1.122h10.323a1.122,1.122,0,1,1,0,2.244h-9.2v4.04a4.04,4.04,0,0,0,8.079,0,1.122,1.122,0,1,1,2.244,0A6.29,6.29,0,0,1,282.284,175.577Z" transform="translate(-246.828 -150.443)"/><path d="M370.422,170.416h-1.29a1.122,1.122,0,0,1-1.122-1.122v-5.162a1.122,1.122,0,0,1,1.122-1.122h1.29a3.7,3.7,0,0,1,0,7.406Zm-.168-2.244h.168a1.459,1.459,0,1,0,0-2.918h-.168Z" transform="translate(-328.515 -150.443)"/><path d="M288.674,79.7h-7.1a3.058,3.058,0,0,1,0-6.116h2.194a1.2,1.2,0,0,0,1.2-1.2v-.258a1.122,1.122,0,0,1,2.244,0v.258a3.449,3.449,0,0,1-3.446,3.444h-2.194a.815.815,0,0,0-.813.815.814.814,0,0,0,.813.813h7.1a1.122,1.122,0,1,1,0,2.244Z" transform="translate(-249.065 -68.756)"/><path d="M70.488,59.976a4.488,4.488,0,1,1,4.488-4.488A4.493,4.493,0,0,1,70.488,59.976Zm0-6.732a2.244,2.244,0,1,0,2.244,2.244A2.247,2.247,0,0,0,70.488,53.244Z" transform="translate(-60.39 -51)"/><path d="M408.8,316.61a2.8,2.8,0,1,1,2.8-2.8A2.808,2.808,0,0,1,408.8,316.61Zm0-3.366a.561.561,0,1,0,.561.561A.562.562,0,0,0,408.8,313.244Z" transform="translate(-362.243 -281.828)"/><path d="M282.732,193.244h-5.61a1.122,1.122,0,0,1,0-2.244h5.61a1.122,1.122,0,0,1,0,2.244Z" transform="translate(-246.828 -175.292)"/></g></g></g></svg>