<svg xmlns="http://www.w3.org/2000/svg" xmlns:xlink="http://www.w3.org/1999/xlink" width="102" height="102" viewBox="0 0 102 102"><defs><filter id="a" x="0" y="0" width="102" height="102" filterUnits="userSpaceOnUse"><feOffset dy="3" input="SourceAlpha"/><feGaussianBlur stdDeviation="3" result="b"/><feFlood flood-opacity="0.161"/><feComposite operator="in" in2="b"/><feComposite in="SourceGraphic"/></filter></defs><g transform="translate(-1113.703 -2275.398)"><g transform="translate(1122.703 2281.398)"><g transform="matrix(1, 0, 0, 1, -9, -6)" filter="url(#a)"><circle cx="42" cy="42" r="42" transform="translate(9 6)" fill="#fdf7e4"/></g></g><g transform="translate(1137.479 2296.178)"><path d="M331.119,331.021a4.357,4.357,0,0,1-6.144,0l-11.8-11.8a4.345,4.345,0,0,1,6.144-6.144l11.8,11.8A4.358,4.358,0,0,1,331.119,331.021Zm0,0" transform="translate(-278.736 -278.648)" fill="#c6c5ca"/><path d="M324.1,324.6a4.019,4.019,0,0,1-.544-4.067l.963-2.262-5.2-5.2a4.345,4.345,0,0,0-6.144,6.144l11.8,11.8a4.357,4.357,0,0,0,6.144,0s-5.506-4.5-7.023-6.419Zm0,0" transform="translate(-278.736 -278.649)" fill="#acabb1"/><path d="M276.374,271.893l-4.383,4.383a4.115,4.115,0,0,1-5.818,0l-4.766-4.766,10.2-10.2,4.766,4.766A4.113,4.113,0,0,1,276.374,271.893Zm0,0" transform="translate(-233.607 -233.52)" fill="#78a3ef"/><path d="M275.011,301.814c-3.857-1.763-5.866-5.877-6.8-8.548l-6.8,6.8,4.766,4.766a4.114,4.114,0,0,0,5.818,0Zm0,0" transform="translate(-233.607 -262.078)" fill="#6392d6"/><path d="M49.94,28.626A21.216,21.216,0,1,1,28.724,7.41,21.216,21.216,0,0,1,49.94,28.626Zm0,0" transform="translate(-6.709 -6.622)" fill="#d8d7da"/><path d="M24.456,41.436a21.253,21.253,0,0,1,.027-30.03A21.217,21.217,0,1,0,43.7,47.223a21.2,21.2,0,0,1-19.242-5.787Zm0,0" transform="translate(-6.706 -10.193)" fill="#c6c5ca"/><path d="M87.635,87.538a15.461,15.461,0,1,1,0-21.865A15.478,15.478,0,0,1,87.635,87.538Zm0,0" transform="translate(-54.736 -54.649)" fill="#bdfaff"/><path d="M67.333,90.809a16.023,16.023,0,0,0-1.563,1.368,15.46,15.46,0,0,0,15.819,25.6A21.2,21.2,0,0,1,67.333,90.809Zm0,0" transform="translate(-54.735 -81.151)" fill="#a0f0f2"/><path d="M96.982,135.059a2.486,2.486,0,0,0,2.2-2.365,2.158,2.158,0,0,1,4.309.255,6.86,6.86,0,0,1-5.956,6.39,2.252,2.252,0,0,1-2.419-1.862A2.019,2.019,0,0,1,96.982,135.059Zm0,0" transform="translate(-84.96 -116.768)" fill="#92dd7a"/><path d="M147.07,230.221a2.486,2.486,0,0,0,.5-3.193,2.158,2.158,0,1,1,3.713-2.2,6.86,6.86,0,0,1-1.356,8.629,2.252,2.252,0,0,1-3.047-.188A2.019,2.019,0,0,1,147.07,230.221Zm0,0" transform="translate(-130.72 -199.972)" fill="#ffde55"/><path d="M226.29,165.212a2.486,2.486,0,0,0-3.019,1.154,2.158,2.158,0,0,1-3.758-2.124,6.86,6.86,0,0,1,8.159-3.119,2.252,2.252,0,0,1,1.353,2.735,2.02,2.02,0,0,1-2.736,1.353Zm0,0" transform="translate(-195.919 -143.666)" fill="#d7abf4"/><path d="M246.678,251.7a2.185,2.185,0,1,1-2.185-2.185A2.185,2.185,0,0,1,246.678,251.7Zm0,0" transform="translate(-216.541 -222.978)" fill="#66d3d0"/><path d="M210.935,104.869a2.184,2.184,0,1,1-2.184-2.185A2.185,2.185,0,0,1,210.935,104.869Zm0,0" transform="translate(-184.599 -91.764)" fill="#ffb864"/><path d="M52.948,45.664l-6.6-6.6a.8.8,0,0,0-1.129,1.129l6.6,6.6A3.546,3.546,0,0,1,46.8,51.808l-8.186-8.186c.114-.1,4.714-4.684,4.714-4.684a4.917,4.917,0,0,0,0-6.947l-1.144-1.144a22.015,22.015,0,1,0-27.272,12,.8.8,0,0,0,.514-1.512A20.435,20.435,0,0,1,1.6,22,20.418,20.418,0,0,1,36.452,7.566,20.419,20.419,0,0,1,18.4,42.1a.8.8,0,1,0-.281,1.571,22.052,22.052,0,0,0,12.729-1.507L32,43.32a4.657,4.657,0,0,0,5.188,1.132l8.486,8.486a5.143,5.143,0,0,0,7.273-7.273ZM33.13,42.192l-.762-.762a22.111,22.111,0,0,0,9.081-9.063l.753.753a3.32,3.32,0,0,1,0,4.69l-4.383,4.383a6.142,6.142,0,0,1-.83.606,3.13,3.13,0,0,1-3.859-.606Zm0,0"/><path d="M81.492,81.4a16.277,16.277,0,1,0-11.5,4.755,16.149,16.149,0,0,0,11.5-4.755ZM59.627,59.532a14.656,14.656,0,1,1,0,20.736,14.617,14.617,0,0,1,0-20.736Zm0,0" transform="translate(-48.028 -47.943)"/><path d="M97.579,126.286a2.956,2.956,0,0,0-5.9-.349,1.68,1.68,0,0,1-1.473,1.617,2.89,2.89,0,0,0-2.114,1.18,2.709,2.709,0,0,0-.457,2.222,2.872,2.872,0,0,0,3.3,2.465,7.635,7.635,0,0,0,6.65-7.135Zm-6.856,5.552a1.477,1.477,0,0,1-1.54-1.259,1.2,1.2,0,0,1,1.152-1.434,3.479,3.479,0,0,0,2.935-3.113,1.36,1.36,0,0,1,2.715.161,6.06,6.06,0,0,1-5.262,5.646Zm0,0" transform="translate(-78.248 -110.058)"/><path d="M145.262,217.719a2.956,2.956,0,1,0-5.086,3.016,1.68,1.68,0,0,1-.316,2.164,2.893,2.893,0,0,0-1.091,2.162,2.71,2.71,0,0,0,.866,2.1,3.334,3.334,0,0,0,2.233.9,2.811,2.811,0,0,0,1.879-.707A7.658,7.658,0,0,0,145.262,217.719Zm-2.572,8.438a1.478,1.478,0,0,1-1.981-.18,1.252,1.252,0,0,1,.151-1.834,3.3,3.3,0,0,0,.688-4.223,1.37,1.37,0,0,1,.476-1.863,1.316,1.316,0,0,1,1.864.476,6.06,6.06,0,0,1-1.2,7.624Zm0,0" transform="translate(-124.011 -193.272)"/><path d="M212.117,157.881a2.96,2.96,0,0,0,1.119,4.029,3.233,3.233,0,0,0,2.246.275,2.894,2.894,0,0,0,1.783-1.394,1.712,1.712,0,0,1,2.034-.8,2.739,2.739,0,0,0,3.806-1.925,3.048,3.048,0,0,0-1.877-3.663,7.658,7.658,0,0,0-1.221-.3.8.8,0,0,0-.257,1.576,6.116,6.116,0,0,1,.966.24,1.478,1.478,0,0,1,.83,1.808,1.213,1.213,0,0,1-1.665.781,3.305,3.305,0,0,0-4.005,1.505,1.36,1.36,0,0,1-2.367-1.338,6.04,6.04,0,0,1,3.384-2.772.8.8,0,1,0-.5-1.517A7.636,7.636,0,0,0,212.117,157.881Zm0,0" transform="translate(-189.218 -137.698)"/><path d="M237.784,242a2.983,2.983,0,1,0,2.983,2.983A2.987,2.987,0,0,0,237.784,242Zm0,4.369a1.386,1.386,0,1,1,1.386-1.386A1.388,1.388,0,0,1,237.784,246.373Zm0,0" transform="translate(-209.831 -216.268)"/><path d="M202.041,101.141a2.983,2.983,0,1,0-2.983-2.983A2.986,2.986,0,0,0,202.041,101.141Zm0-4.369a1.386,1.386,0,1,1-1.387,1.387A1.388,1.388,0,0,1,202.041,96.772Zm0,0" transform="translate(-177.889 -85.054)"/></g></g></svg>