<svg xmlns="http://www.w3.org/2000/svg" width="85" height="85" viewBox="0 0 85 85"><path d="M90.167,49.083A41.083,41.083,0,1,1,49.083,8,41.084,41.084,0,0,1,90.167,49.083Zm0,0" transform="translate(-6.583 -6.583)" fill="#ff9478"/><path d="M209.121,200.5a7.963,7.963,0,0,1-.142,1.558,8.574,8.574,0,0,1-5.766,6.545,8.718,8.718,0,0,1-2.593.4,8.5,8.5,0,0,1-2.833-16.5,8.212,8.212,0,0,1,2.833-.5A8.516,8.516,0,0,1,209.121,200.5Zm0,0" transform="translate(-158.121 -158)" fill="#898890"/><path d="M229.667,226.833A2.833,2.833,0,1,1,226.833,224,2.833,2.833,0,0,1,229.667,226.833Zm0,0" transform="translate(-184.333 -184.333)" fill="#ee8700"/><g transform="translate(13.576 8.5)"><path d="M232.556,75.724A21.624,21.624,0,0,0,235.333,65c0-9.392-5.851-17-11.333-17V74a8.212,8.212,0,0,1,2.833-.5,8.394,8.394,0,0,1,5.723,2.224Zm0,0" transform="translate(-197.909 -48)" fill="#e6e7e8"/><path d="M97.09,231.575a8.449,8.449,0,0,1,.2-1.813,21.6,21.6,0,0,0-10.668,2.946,22.394,22.394,0,0,0-2.115,1.407,21.271,21.271,0,0,0-5.789,6.4c-2.2,3.825-2.7,7.83-1.148,10.516l5.048-2.914,6.17-3.562,11.279-6.517a8.516,8.516,0,0,1-2.975-6.457Zm0,0" transform="translate(-76.667 -197.575)" fill="#e6e7e8"/><path d="M254.641,255.346a21.676,21.676,0,0,0,7.877,7.763c8.131,4.689,17.652,3.428,20.385-1.318l-22.5-12.991A8.574,8.574,0,0,1,254.641,255.346Zm0,0" transform="translate(-223.125 -213.243)" fill="#e6e7e8"/></g><path d="M224.5,220.25a4.25,4.25,0,1,0-4.25,4.25A4.25,4.25,0,0,0,224.5,220.25Zm-4.25,1.417a1.417,1.417,0,1,1,1.417-1.417A1.417,1.417,0,0,1,220.25,221.667Zm0,0" transform="translate(-177.75 -177.75)"/><path d="M130.544,88.733l-21.675-12.52c.02-.261.035-.524.035-.8A9.916,9.916,0,0,0,106.44,68.9,23.42,23.42,0,0,0,108.9,58.417C108.9,48.783,102.82,40,96.147,40a1.417,1.417,0,0,0-1.417,1.417V66.479A9.943,9.943,0,0,0,89.6,72.225a23.4,23.4,0,0,0-10.3,3.1c-.053.03-.1.065-.154.1A19.834,19.834,0,0,1,89.529,57.98l-1.353-2.489A22.666,22.666,0,0,0,76.314,75.417c0,.632.044,1.253.095,1.873a23.047,23.047,0,0,0-3.747,3.737A26.888,26.888,0,0,1,89.421,50.245L88.415,47.6a29.769,29.769,0,0,0-17.85,36.641c-.15.283-.309.567-.445.85-1.834,3.921-1.976,7.743-.389,10.483a1.417,1.417,0,0,0,1.935.518L75.633,93.8a29.7,29.7,0,0,0,38.223,7.389l-1.417-2.451a26.9,26.9,0,0,1-34.333-6.358l3.746-2.162a22.636,22.636,0,0,0,24.562,6.622l-.928-2.679a19.788,19.788,0,0,1-21.13-5.383l9.024-5.212a9.882,9.882,0,0,0,5.6,1.771,10.07,10.07,0,0,0,1.926-.21,23.484,23.484,0,0,0,7.836,7.386A22.943,22.943,0,0,0,120.1,95.645c.567,0,1.134-.022,1.7-.071,4.314-.373,7.694-2.159,9.275-4.9a1.416,1.416,0,0,0-.527-1.94ZM97.564,43.04c4.2,1.2,8.5,7.494,8.5,15.376A20.709,20.709,0,0,1,104.223,67a9.741,9.741,0,0,0-1.077-.567c-.091-.042-.181-.082-.272-.122a10.17,10.17,0,0,0-1.133-.412h-.015a9.691,9.691,0,0,0-1.2-.253c-.1-.016-.2-.03-.3-.043a8.851,8.851,0,0,0-2.662,0ZM71.66,92.827a9.139,9.139,0,0,1,.378-4.875,29.752,29.752,0,0,0,1.944,3.533Zm4.773-2.757a26.848,26.848,0,0,1-2.754-5.559,19.644,19.644,0,0,1,3.258-3.923,22.588,22.588,0,0,0,3.176,7.36Zm6.132-3.542A19.7,19.7,0,0,1,79.426,78.6q.631-.425,1.292-.813a20.7,20.7,0,0,1,8.346-2.69v.324a9.873,9.873,0,0,0,.125,1.478c.017.115.034.227.055.34a10.135,10.135,0,0,0,.36,1.4c.019.054.044.105.064.158a9.885,9.885,0,0,0,.535,1.2c.05.1.1.2.153.292a10.131,10.131,0,0,0,.789,1.193c.017.023.028.048.046.071ZM94.378,80.8A7.1,7.1,0,0,1,91.9,75.417a6.925,6.925,0,0,1,.167-1.514,7.082,7.082,0,0,1,4.567-5.16,6.782,6.782,0,0,1,1.022-.272c.158-.03.319-.046.479-.064.181-.022.365-.039.55-.048s.392,0,.588,0a4.341,4.341,0,0,1,.523.048,7.2,7.2,0,0,1,1.184.241c.119.034.239.059.356.1.192.066.376.153.567.235a5.7,5.7,0,0,1,.544.273c.142.075.274.153.405.238a6.918,6.918,0,0,1,.908.694,7.075,7.075,0,0,1,2.308,5.227,6.627,6.627,0,0,1-.118,1.3A7.083,7.083,0,0,1,94.378,80.8Zm27.168,11.95a19.957,19.957,0,0,1-11.383-2.692,20.778,20.778,0,0,1-6.5-5.9c.091-.049.167-.118.256-.168a9.858,9.858,0,0,0,.953-.625c.129-.095.257-.188.381-.283a10.09,10.09,0,0,0,1.025-.965c.034-.037.074-.068.107-.107a10,10,0,0,0,.942-1.258c.072-.113.131-.231.2-.346a9.969,9.969,0,0,0,.544-1.075c.034-.08.084-.149.116-.228l19.529,11.277a10.267,10.267,0,0,1-6.172,2.368Zm0,0" transform="translate(-56.481 -32.917)"/><path d="M42.5,0A42.5,42.5,0,1,0,85,42.5,42.5,42.5,0,0,0,42.5,0Zm0,82.167A39.667,39.667,0,1,1,82.167,42.5,39.667,39.667,0,0,1,42.5,82.167Zm0,0"/><path d="M329.458,120.25a27.174,27.174,0,0,1-.547,5.426l2.777.567a29.8,29.8,0,0,0-14.272-31.761L316,96.932a27.025,27.025,0,0,1,13.458,23.318Zm0,0" transform="translate(-260.042 -77.75)"/><path d="M321.276,161.489h2.833a22.694,22.694,0,0,0-7.555-16.895l-1.89,2.11A19.862,19.862,0,0,1,321.276,161.489Zm0,0" transform="translate(-258.942 -118.989)"/></svg>