<svg xmlns="http://www.w3.org/2000/svg" width="72" height="72" viewBox="0 0 72 72"><g transform="translate(-304 -3248.466)"><path d="M36,0A36,36,0,1,1,0,36,36,36,0,0,1,36,0Z" transform="translate(304 3248.466)" fill="#f9ebbb"/><g transform="translate(260.069 3262.096)"><g transform="translate(63.301 6.455)"><path d="M70.13,72.15h33.259v3.615H70.13Z" transform="translate(-70.13 -72.15)" fill="#d8aa8b"/></g><g transform="translate(94.21 6.455)"><path d="M415.606,72.15h2.35v3.615h-2.35Z" transform="translate(-415.606 -72.15)" fill="#ce9875"/></g><g transform="translate(65.47 10.07)"><path d="M94.374,112.557l1.808,35.067h25.306l1.808-35.067Z" transform="translate(-94.374 -112.557)" fill="#f4fbff"/></g><g transform="translate(90.234 10.07)"><path d="M372.967,112.557l-1.808,35.067h2.35l1.807-35.067Z" transform="translate(-371.159 -112.557)" fill="#e4f6ff"/></g><g transform="translate(66.076 17.752)"><path d="M128.853,202.488h-6.306a9.039,9.039,0,0,0-15.1,0h-6.306l.512,9.942h5.794a9.039,9.039,0,0,0,15.1,0h5.794Z" transform="translate(-101.143 -198.421)" fill="#d8aa8b"/></g><g transform="translate(90.923 21.819)"><path d="M378.865,253.82h2.35l.349-6.769.164-3.173h-2.35Z" transform="translate(-378.865 -243.878)" fill="#ce9875"/></g><g transform="translate(65.47 0.671)"><path d="M123.295,13.284H94.374l.9-5.784h27.113Z" transform="translate(-94.374 -7.5)" fill="#efecef"/></g><g transform="translate(90.595 0.671)"><path d="M378.091,7.5H375.2l.9,5.784h2.892Z" transform="translate(-375.199 -7.5)" fill="#dddaec"/></g><g transform="translate(74.508 0.671)"><path d="M205.332,10.392h-9.038l-.9-2.892h10.845Z" transform="translate(-195.39 -7.5)" fill="#5c90b9"/></g><g transform="translate(72.769 19.633)"><g transform="translate(0 0)"><ellipse cx="5.784" cy="4.338" rx="5.784" ry="4.338" transform="translate(0 8.179) rotate(-45)" fill="#986b54"/></g><g transform="translate(2.05 4.363)"><path d="M208.872,268.213a6.9,6.9,0,0,1-1.969,3.64c-2.259,2.259-5.463,2.717-7.158,1.022a3.379,3.379,0,0,1-.8-1.3,3.919,3.919,0,0,0,.946,3.517c1.694,1.694,4.9,1.236,7.158-1.022A5.947,5.947,0,0,0,208.872,268.213Z" transform="translate(-198.866 -268.213)" fill="#845c47"/></g></g><g transform="translate(62.63)"><path d="M96.56,5.784H94.966L94.15.567A.671.671,0,0,0,93.487,0H71.707a.671.671,0,0,0,0,1.342h2.308l.757,2.421a.671.671,0,0,0,.641.471h9.038a.671.671,0,0,0,.64-.471l.757-2.421h7.066l.695,4.442H66.254l.695-4.442h1.627a.671.671,0,1,0,0-1.342h-2.2a.671.671,0,0,0-.663.567L64.9,5.784H63.3a.671.671,0,0,0-.671.671v3.615a.671.671,0,0,0,.671.671h1.531l1.775,34.43a.671.671,0,0,0,.67.636h6.583a.671.671,0,1,0,0-1.342H67.915l-.62-12.034h4.734a9.709,9.709,0,0,0,15.8,0h4.734l-.62,12.034H76.992a.671.671,0,1,0,0,1.342H92.583a.671.671,0,0,0,.67-.636l1.775-34.43H96.56a.671.671,0,0,0,.671-.671V6.455a.671.671,0,0,0-.671-.671Zm-12.6-2.892H75.905l-.484-1.55h9.02Zm3.523,28.2a.671.671,0,0,0-.56.3,8.368,8.368,0,0,1-13.977,0,.671.671,0,0,0-.56-.3H67.226l-.443-8.6h5.6a.671.671,0,0,0,.56-.3,8.368,8.368,0,0,1,13.977,0,.671.671,0,0,0,.56.3h5.6l-.443,8.6ZM95.889,9.4H91.8a.671.671,0,0,0,0,1.342h1.885l-.537,10.407H87.832a9.709,9.709,0,0,0-15.8,0H66.713l-.537-10.407H88.668a.671.671,0,1,0,0-1.342h-24.7V7.126H95.889Z" transform="translate(-62.63)"/><path d="M197.756,234.839a7.886,7.886,0,0,0-6.354,6.354,4.508,4.508,0,0,0,1.161,3.936,4.311,4.311,0,0,0,3.119,1.22,5.793,5.793,0,0,0,.818-.059,7.509,7.509,0,0,0,4.17-2.183c2.517-2.517,2.976-6.153,1.023-8.106a4.509,4.509,0,0,0-3.937-1.161Zm1.965,8.318c-1.994,1.994-4.779,2.453-6.209,1.023a3.2,3.2,0,0,1-.781-2.8,6.551,6.551,0,0,1,5.215-5.215,4.4,4.4,0,0,1,.621-.045,3,3,0,0,1,2.177.827C202.173,238.378,201.714,241.163,199.721,243.157Z" transform="translate(-179.827 -213.774)"/><path d="M228.187,270.012a.361.361,0,0,1-.235.117,1.742,1.742,0,0,0-1.335,1.335.41.41,0,0,1-.351.351,1.741,1.741,0,0,0-1.335,1.335.41.41,0,0,1-.35.351,1.654,1.654,0,0,0-.864.471.671.671,0,0,0,.949.949.36.36,0,0,1,.234-.116,1.741,1.741,0,0,0,1.335-1.335.41.41,0,0,1,.35-.35,1.741,1.741,0,0,0,1.335-1.335.411.411,0,0,1,.351-.351,1.656,1.656,0,0,0,.864-.471.671.671,0,1,0-.949-.949Z" transform="translate(-209.127 -245.676)"/><path d="M330.994,448.844H332.8a.671.671,0,0,0,0-1.342h-1.808a.671.671,0,0,0,0,1.342Z" transform="translate(-306.373 -407.465)"/><path d="M330.994,416.519H332.8a.671.671,0,0,0,0-1.342h-1.808a.671.671,0,0,0,0,1.342Z" transform="translate(-306.373 -378.032)"/><path d="M148.953,447.5h-1.808a.671.671,0,0,0,0,1.342h1.808a.671.671,0,1,0,0-1.342Z" transform="translate(-138.973 -407.465)"/><path d="M148.953,415.177h-1.808a.671.671,0,1,0,0,1.342h1.808a.671.671,0,0,0,0-1.342Z" transform="translate(-138.973 -378.032)"/></g></g></g></svg>