<svg xmlns="http://www.w3.org/2000/svg" xmlns:xlink="http://www.w3.org/1999/xlink" width="102" height="102" viewBox="0 0 102 102"><defs><filter id="a" x="0" y="0" width="102" height="102" filterUnits="userSpaceOnUse"><feOffset dy="3" input="SourceAlpha"/><feGaussianBlur stdDeviation="3" result="b"/><feFlood flood-opacity="0.161"/><feComposite operator="in" in2="b"/><feComposite in="SourceGraphic"/></filter></defs><g transform="translate(-802.703 -2275.398)"><g transform="translate(811.703 2281.398)"><g transform="matrix(1, 0, 0, 1, -9, -6)" filter="url(#a)"><circle cx="42" cy="42" r="42" transform="translate(9 6)" fill="#fdf7e4"/></g></g><g transform="translate(746.419 2276)"><path d="M125.347,300.622H98.379A2.379,2.379,0,0,1,96,298.243a32.948,32.948,0,0,1,2.357-12.237l1.954-4.884A1.785,1.785,0,0,1,101.967,280h19.792a1.785,1.785,0,0,1,1.657,1.122l1.954,4.884a32.949,32.949,0,0,1,2.357,12.237,2.379,2.379,0,0,1-2.379,2.379Z" transform="translate(-7.207 -230.619)" fill="#7d755d"/><path d="M160,232h3.173v4.759H160Z" transform="translate(-64.862 -187.378)" fill="#aea482"/><path d="M320,232h3.173v4.759H320Z" transform="translate(-208.998 -187.378)" fill="#aea482"/><ellipse cx="6.499" cy="6.174" rx="6.499" ry="6.174" transform="translate(98.157 52.597)" fill="#e6e5e0"/><path d="M137.381,203.173H115.173A3.173,3.173,0,0,1,112,200h28.554A3.173,3.173,0,0,1,137.381,203.173Z" transform="translate(-21.621 -158.55)" fill="#aea482"/><g transform="translate(95.932 24.793)"><path d="M181.88,48.656H171.569a1.983,1.983,0,0,1-1.983-1.983v-11.5l-.465-.465A3.83,3.83,0,0,1,168,32h15.863V46.673A1.983,1.983,0,0,1,181.88,48.656Z" transform="translate(-168 -32)" fill="#e6e5e0"/><path d="M186.379,160.793a.793.793,0,0,1-.793.793H184V160h1.586A.793.793,0,0,1,186.379,160.793Z" transform="translate(-182.414 -147.309)" fill="#e6e5e0"/><path d="M186.379,128.793a.793.793,0,0,1-.793.793H184V128h1.586a.793.793,0,0,1,.793.793Z" transform="translate(-182.414 -118.482)" fill="#e6e5e0"/><path d="M186.379,96.793a.793.793,0,0,1-.793.793H184V96h1.586A.793.793,0,0,1,186.379,96.793Z" transform="translate(-182.414 -89.655)" fill="#e6e5e0"/></g><path d="M328,56v3.173h2.379a2.379,2.379,0,0,1,0,4.759H328V67.1h2.379a5.552,5.552,0,0,0,0-11.1Z" transform="translate(-216.205 -28.827)" fill="#d6d5d0"/><path d="M92.367,50.208l-1.954,4.884A33.6,33.6,0,0,0,88,67.624,3.176,3.176,0,0,0,91.173,70.8H118.14a3.176,3.176,0,0,0,3.173-3.173A33.6,33.6,0,0,0,118.9,55.093l-1.954-4.884a2.563,2.563,0,0,0-1.978-1.587V45.415h.793a3.97,3.97,0,0,0,3.966-3.966.793.793,0,0,0-.793-.793h-6.614a2.759,2.759,0,0,0,.268-1.19v-.4h1.586a6.345,6.345,0,1,0,0-12.691h-1.586V24.793a.793.793,0,0,0-.793-.793H95.932a.793.793,0,0,0-.793.793,4.593,4.593,0,0,0,1.354,3.269l.232.232V39.467a2.759,2.759,0,0,0,.268,1.19H90.379a.793.793,0,0,0-.793.793,3.97,3.97,0,0,0,3.966,3.966h.793v3.206a2.563,2.563,0,0,0-1.978,1.587Zm23.106.589,1.954,4.884a32.017,32.017,0,0,1,2.3,11.942,1.588,1.588,0,0,1-1.586,1.586H91.173a1.588,1.588,0,0,1-1.586-1.586,32.017,32.017,0,0,1,2.3-11.942L93.84,50.8a.987.987,0,0,1,.921-.623h19.792a.987.987,0,0,1,.921.623Zm-5.264-5.382v3.173H99.1V45.415Zm3.173,3.173h-1.586V45.415h1.586Zm-.793-17.449h1.586a1.586,1.586,0,0,1,0,3.173h-1.586Zm1.586-3.173a4.759,4.759,0,1,1,0,9.518h-1.586V35.9h1.586a3.173,3.173,0,0,0,0-6.345h-1.586V27.966Zm-15.863,11.5v-.4H99.1a.793.793,0,1,0,0-1.586h-.793V35.9H99.1a.793.793,0,1,0,0-1.586h-.793V32.725H99.1a.793.793,0,1,0,0-1.586h-.793V27.966a.793.793,0,0,0-.232-.561l-.465-.465a3.018,3.018,0,0,1-.785-1.354H111v13.88a1.191,1.191,0,0,1-1.19,1.19H99.5A1.191,1.191,0,0,1,98.311,39.467Zm-7,2.776H118a2.384,2.384,0,0,1-2.244,1.586H93.552a2.384,2.384,0,0,1-2.244-1.586Zm6.209,3.173v3.173H95.932V45.415Z"/><path d="M191.138,304a7.138,7.138,0,1,0,7.138,7.138A7.138,7.138,0,0,0,191.138,304Zm0,12.69a5.552,5.552,0,1,1,5.552-5.552A5.552,5.552,0,0,1,191.138,316.69Z" transform="translate(-86.482 -252.239)"/><path d="M227.172,360a1.587,1.587,0,0,0-1.459,2.21l-1.555,2.074a.793.793,0,0,0,1.269.952l1.556-2.074a1.586,1.586,0,1,0,.189-3.16Z" transform="translate(-122.516 -302.687)"/></g></g></svg>