<svg xmlns="http://www.w3.org/2000/svg" width="84.051" height="84.051" viewBox="0 0 84.051 84.051"><g transform="translate(-0.001)"><path d="M210.082,89.427l-8.364-2.091A14.243,14.243,0,0,1,190.93,73.519V9.866a1.78,1.78,0,0,1,2.212-1.727l8.364,2.091a14.243,14.243,0,0,1,10.788,13.817V87.7A1.78,1.78,0,0,1,210.082,89.427Z" transform="translate(-159.586 -6.758)" fill="#d6d6d6"/><path d="M196.3,84.662a14.238,14.238,0,0,1-5.374-11.143V9.866a1.78,1.78,0,0,1,2.212-1.727l3.161.79Z" transform="translate(-159.586 -6.758)" fill="#bcbcbc"/><path d="M84.494,109.5l-4.435-7.392a14.243,14.243,0,0,1,2.142-17.4L127.21,39.7a1.78,1.78,0,0,1,2.785.343l4.435,7.392a14.243,14.243,0,0,1-2.142,17.4l-45.009,45.01A1.78,1.78,0,0,1,84.494,109.5Z" transform="translate(-65.218 -32.749)" fill="#a0a0a0"/><g transform="translate(1.328 6.432)"><path d="M78.131,96.391a14.239,14.239,0,0,1,4.079-11.679L127.22,39.7a1.78,1.78,0,0,1,2.785.343l1.677,2.794Z" transform="translate(-66.556 -39.181)" fill="#bcbcbc"/><path d="M8.138,210.082l2.091-8.364A14.243,14.243,0,0,1,24.046,190.93H87.7a1.78,1.78,0,0,1,1.727,2.212l-2.091,8.364a14.243,14.243,0,0,1-13.817,10.788H9.866A1.781,1.781,0,0,1,8.138,210.082Z" transform="translate(-8.084 -166.019)" fill="#bcbcbc"/></g><path d="M84.662,288.337a14.239,14.239,0,0,1-11.143,5.374H9.866A1.78,1.78,0,0,1,8.139,291.5l.79-3.161Z" transform="translate(-6.757 -241.003)" fill="#d6d6d6"/><path d="M40.046,84.494l7.392-4.435a14.243,14.243,0,0,1,17.4,2.142l45.01,45.009A1.78,1.78,0,0,1,109.5,130l-7.392,4.435a14.243,14.243,0,0,1-17.4-2.142L39.7,87.279A1.78,1.78,0,0,1,40.046,84.494Z" transform="translate(-32.748 -65.219)" fill="#bcbcbc"/><path d="M96.392,160.751a14.238,14.238,0,0,1-11.679-4.079L39.7,111.662a1.78,1.78,0,0,1,.343-2.786l2.794-1.677Z" transform="translate(-32.749 -89.602)" fill="#a0a0a0"/><path d="M186.8,168.367a16.913,16.913,0,1,1-16.913-16.913A16.913,16.913,0,0,1,186.8,168.367Z" transform="translate(-127.86 -126.591)" fill="#f2f2f2"/><path d="M208.217,195.019a11.679,11.679,0,1,1-11.679-11.679A11.679,11.679,0,0,1,208.217,195.019Z" transform="translate(-154.512 -153.242)" fill="#d6d6d6"/><path d="M237.79,231.82a4.451,4.451,0,1,1-4.451-4.451A4.451,4.451,0,0,1,237.79,231.82Z" transform="translate(-191.314 -190.044)" fill="#a0a0a0"/><path d="M234.68,236.065a4.451,4.451,0,1,1,0-8.489,4.452,4.452,0,0,0,0,8.489Z" transform="translate(-191.314 -190.044)" fill="#7f7f7f"/><path d="M43.353,53.348a1.327,1.327,0,0,1-1.327,1.327,12.914,12.914,0,0,1-12.9-12.9,1.327,1.327,0,0,1,2.654,0A10.256,10.256,0,0,0,42.026,52.021,1.327,1.327,0,0,1,43.353,53.348Zm-26.542-.641a1.327,1.327,0,0,0-1.327-1.327H3.11a.453.453,0,0,1-.44-.563l2.091-8.364a12.926,12.926,0,0,1,6.6-8.34,1.327,1.327,0,0,0-1.22-2.357A15.583,15.583,0,0,0,2.186,41.81L.095,50.173A3.108,3.108,0,0,0,3.11,54.035H15.484A1.327,1.327,0,0,0,16.811,52.708Zm66.581-21.5a3.088,3.088,0,0,0-2.449-1.2H68.568a1.327,1.327,0,1,0,0,2.654H80.943a.453.453,0,0,1,.44.563L79.292,41.6a12.88,12.88,0,0,1-6.976,8.529,1.327,1.327,0,1,0,1.142,2.4,15.525,15.525,0,0,0,8.409-10.281l2.091-8.364A3.089,3.089,0,0,0,83.392,31.212Zm-5.356,29.84a3.108,3.108,0,0,1-.6,4.862l-7.393,4.436a15.548,15.548,0,0,1-16.01.011V80.942a3.11,3.11,0,0,1-3.1,3.109,3.149,3.149,0,0,1-.761-.094L41.81,81.866a15.612,15.612,0,0,1-9.918-7.7,1.327,1.327,0,1,1,2.334-1.264,12.953,12.953,0,0,0,8.228,6.385l8.364,2.091a.453.453,0,0,0,.563-.44V68.568a1.326,1.326,0,0,1,.015-.2q-.188-.176-.371-.359l-4.942-4.942a1.327,1.327,0,1,1,1.877-1.877L52.9,66.131a12.9,12.9,0,0,0,15.777,1.942l7.392-4.435a.453.453,0,0,0,.087-.709l-16.5-16.5A18.272,18.272,0,0,1,42.026,60.016q-.493,0-.981-.026L23,78.035a3.108,3.108,0,0,1-4.862-.6L13.7,70.044a15.522,15.522,0,0,1-1.309-13.258,1.327,1.327,0,0,1,2.5.894,12.876,12.876,0,0,0,1.086,11l4.435,7.392a.453.453,0,0,0,.709.087L37.767,59.514a18.258,18.258,0,0,1-9.236-5.48H20.793a1.327,1.327,0,1,1,0-2.654h5.732a18.131,18.131,0,0,1-2.739-9.6q0-.493.026-.981L6.016,23a3.108,3.108,0,0,1,.6-4.862L14.007,13.7a15.547,15.547,0,0,1,16.01-.011V3.109A3.108,3.108,0,0,1,33.878.094l8.364,2.091a15.624,15.624,0,0,1,9.866,7.6,1.327,1.327,0,0,1-2.325,1.28A12.961,12.961,0,0,0,41.6,4.76L33.234,2.669a.453.453,0,0,0-.563.44V15.484a1.326,1.326,0,0,1-.015.2q.188.176.371.359l3.91,3.91A1.327,1.327,0,0,1,35.06,21.83l-3.91-3.91a12.9,12.9,0,0,0-15.778-1.942L7.98,20.413a.453.453,0,0,0-.087.709L24.288,37.517A18.273,18.273,0,0,1,42.026,23.536q.732,0,1.449.057L61.053,6.016a3.108,3.108,0,0,1,4.862.6l4.436,7.393A15.607,15.607,0,0,1,71.9,26.521a1.327,1.327,0,1,1-2.541-.767,12.948,12.948,0,0,0-1.289-10.382L63.638,7.98a.453.453,0,0,0-.709-.087L46.683,24.139a18.275,18.275,0,0,1,9.275,5.878h7.3a1.327,1.327,0,0,1,0,2.654H57.826a18.13,18.13,0,0,1,2.439,9.105q0,.732-.057,1.449ZM57.612,41.776A15.586,15.586,0,1,0,42.026,57.362,15.6,15.6,0,0,0,57.612,41.776Zm-9.808,0A5.778,5.778,0,1,1,42.026,36,5.784,5.784,0,0,1,47.8,41.776Zm-2.654,0A3.124,3.124,0,1,0,42.026,44.9,3.127,3.127,0,0,0,45.15,41.776Zm-3.124-12.9a1.327,1.327,0,1,0,0,2.654A10.256,10.256,0,0,1,52.271,41.776a1.327,1.327,0,1,0,2.654,0A12.914,12.914,0,0,0,42.026,28.877Z" transform="translate(0 0)"/></g></svg>