<svg xmlns="http://www.w3.org/2000/svg" width="85" height="85" viewBox="0 0 85 85"><g transform="translate(-176.051 -1627)"><g transform="translate(176.051 1627)" fill="none" stroke="#c98b47" stroke-width="1" stroke-dasharray="7 3"><circle cx="42.5" cy="42.5" r="42.5" stroke="none"/><circle cx="42.5" cy="42.5" r="42" fill="none"/></g><path d="M36.5,0A36.5,36.5,0,1,1,0,36.5,36.5,36.5,0,0,1,36.5,0Z" transform="translate(182.051 1633)" fill="#e3eadf"/><g transform="translate(182.05 1637.1)"><g transform="translate(0.001 -1.214)"><path d="M8.986,33.038a18.9,18.9,0,0,1-4.468-3.31A15.354,15.354,0,0,1,.327,22.5,11.624,11.624,0,0,1,3.65,11.316a8.2,8.2,0,0,1,7.073-2.593c3.285.44,6.129,2.882,8.118,5.2l-3.713,5.387a11.906,11.906,0,0,0-3.75-3.725A3.115,3.115,0,0,0,7,17.055c-2.039,3.851.868,7.828,4.09,9.917Z" transform="translate(-0.001 1.249)" fill="#7e7471"/><path d="M54.15,37.447c-3.021,2.3-7.35,3.688-12.875,3.4-4.015-.214-6.318-1.12-7.639-2.492-3.625-3.738.126-10.836-3.725-16A14.234,14.234,0,0,0,17.4,16.983c-1.095-2.681-1.347-4.808-.592-6.054,0-.013,0-.013.013-.025v-.013a2.541,2.541,0,0,1,.327-.4c3.2-3.2,15.342,3.776,27.147,15.568a99.586,99.586,0,0,1,9.854,11.39Z" transform="translate(4.233 1.522)" fill="#bdc3c7"/><path d="M62.04,53.294c-4.971,4.279-29.727,23.774-48.064,5.437C5.733,50.5,5.141,40.961,7.369,32.516a43.084,43.084,0,0,1,2.1-6.066,58.144,58.144,0,0,1,4.04-7.665c1.309-2.114,2.618-3.952,3.713-5.387.906-1.183,1.661-2.1,2.2-2.718-.755,1.246-.5,3.373.592,6.054,2.19,5.4,7.765,13.089,15.316,20.64.277.277.554.541.831.818C47.215,49.015,58.378,55.509,62.04,53.294Z" transform="translate(1.616 1.772)" fill="#b1a29f"/><path d="M54.15,37.447A99.586,99.586,0,0,0,44.3,26.058C32.491,14.265,20.346,7.293,17.149,10.489a2.541,2.541,0,0,0-.327.4V10.9c-.013.013-.013.013-.013.025-.755,1.246-.5,3.373.592,6.054,2.19,5.4,7.765,13.089,15.316,20.64.277.277.554.541.831.818,11.05,10.823,22.213,17.318,25.876,15.1Z" transform="translate(4.233 1.522)" fill="#bdc3c7"/><ellipse cx="3.776" cy="6.293" rx="3.776" ry="6.293" transform="translate(45.848 5.339) rotate(-45)" fill="#a56a43"/><path d="M27.46,47.355c-3.511,3.524-8.344,4.518-11.44,2.567,2.215-2.328.529-4.09,2.857-6.406,2.366-2.379,4.141-.6,6.519-2.97,2.316-2.328.629-4.078,2.857-6.406a5.89,5.89,0,0,1,.982.793c2.932,2.945,2.152,8.508-1.775,12.422Z" transform="translate(4.141 7.837)" fill="#7a9a63"/><path d="M28.82,34.342c-2.228,2.328-.541,4.078-2.857,6.406-2.379,2.366-4.153.592-6.519,2.97-2.328,2.316-.642,4.078-2.857,6.406a5.89,5.89,0,0,1-.982-.793c-2.945-2.945-2.152-8.508,1.775-12.422C20.891,33.386,25.724,32.392,28.82,34.342Z" transform="translate(3.574 7.635)" fill="#c9d6c0"/><path d="M33.425,36.873l-.088.088c-.277-.277-.554-.541-.831-.818C24.955,28.592,19.38,20.9,17.19,15.5A14.234,14.234,0,0,1,29.7,20.877C33.551,26.037,29.8,33.135,33.425,36.873Z" transform="translate(4.443 3.003)" fill="#a56a43"/><path d="M54.15,37.447A99.586,99.586,0,0,0,44.3,26.058C32.491,14.265,20.346,7.293,17.149,10.489a2.541,2.541,0,0,0-.327.4V10.9c-.013.013-.013.013-.013.025-.755,1.246-.5,3.373.592,6.054,2.19,5.4,7.765,13.089,15.316,20.64.277.277.554.541.831.818,11.05,10.823,22.213,17.318,25.876,15.1,1.3-.938-.592-4.141-.592-4.141Zm-18.84-.805-.818-.793c-.894-.894-1.749-1.787-2.605-2.693C26.538,27.4,22.233,21.5,20.157,17.034c-.151-.34-.3-.667-.428-.994a7.751,7.751,0,0,1-.818-3.637l.176-.151a2.029,2.029,0,0,1,.327-.025c3.625,0,12.95,5.475,23.107,15.619a98.514,98.514,0,0,1,9.364,10.773l.076.214L56.013,51.2c-3.474-.944-9.477-4.531-16.286-10.484-1.447-1.246-2.92-2.618-4.417-4.078Z" transform="translate(4.233 1.522)" fill="#ecf0f1"/><path d="M63.927,31.484a32.47,32.47,0,0,1-4.241,15,7.62,7.62,0,0,1-6.213,3.7h-.044A7.366,7.366,0,0,1,51,49.921a23.211,23.211,0,0,1-4.4-1.951c-.919-.516-1.9-1.108-2.945-1.787A77.793,77.793,0,0,1,34.93,39.5c.491.05,1.007.1,1.548.126,5.525.289,9.854-1.095,12.875-3.4a12.061,12.061,0,0,0,3.172-16.16C47.276,11.271,64.959,11.145,63.927,31.484Z" transform="translate(9.03 2.741)" fill="#a56a43"/><path d="M53.074,37.064A17.91,17.91,0,0,1,44.8,42.652c-.919-.516-1.9-1.108-2.945-1.787a16.168,16.168,0,0,0,9.275-5.412,1.26,1.26,0,1,1,1.938,1.611Z" transform="translate(10.821 8.059)" fill="#805333"/></g></g></g></svg>